<?xml version="1.0" encoding="UTF-8" standalone="no"?>
<!-- Created with Inkscape (http://www.inkscape.org/) -->

<svg
   xmlns:dc="http://purl.org/dc/elements/1.1/"
   xmlns:cc="http://creativecommons.org/ns#"
   xmlns:rdf="http://www.w3.org/1999/02/22-rdf-syntax-ns#"
   xmlns:svg="http://www.w3.org/2000/svg"
   xmlns="http://www.w3.org/2000/svg"
   xmlns:sodipodi="http://sodipodi.sourceforge.net/DTD/sodipodi-0.dtd"
   xmlns:inkscape="http://www.inkscape.org/namespaces/inkscape"
   width="744.09448819"
   height="1052.3622047"
   id="svg2"
   version="1.1"
   inkscape:version="0.48.4 r9939"
   sodipodi:docname="New document 1">
  <defs
     id="defs4">
    <marker
       inkscape:stockid="Arrow1Lend"
       orient="auto"
       refY="0.0"
       refX="0.0"
       id="Arrow1Lend"
       style="overflow:visible;">
      <path
         id="path3857"
         d="M 0.0,0.0 L 5.0,-5.0 L -12.5,0.0 L 5.0,5.0 L 0.0,0.0 z "
         style="fill-rule:evenodd;stroke:#000000;stroke-width:1.0pt;"
         transform="scale(0.8) rotate(180) translate(12.5,0)" />
    </marker>
  </defs>
  <sodipodi:namedview
     id="base"
     pagecolor="#ffffff"
     bordercolor="#666666"
     borderopacity="1.0"
     inkscape:pageopacity="0.0"
     inkscape:pageshadow="2"
     inkscape:zoom="0.7"
     inkscape:cx="484.52978"
     inkscape:cy="366.66473"
     inkscape:document-units="px"
     inkscape:current-layer="layer1"
     showgrid="false"
     inkscape:window-width="927"
     inkscape:window-height="1028"
     inkscape:window-x="65"
     inkscape:window-y="24"
     inkscape:window-maximized="0" />
  <metadata
     id="metadata7">
    <rdf:RDF>
      <cc:Work
         rdf:about="">
        <dc:format>image/svg+xml</dc:format>
        <dc:type
           rdf:resource="http://purl.org/dc/dcmitype/StillImage" />
        <dc:title></dc:title>
      </cc:Work>
    </rdf:RDF>
  </metadata>
  <g
     inkscape:label="Layer 1"
     inkscape:groupmode="layer"
     id="layer1">
    <path
       sodipodi:type="arc"
       style="color:#000000;fill:none;stroke:#000000;stroke-width:1;stroke-linecap:square;stroke-linejoin:miter;stroke-miterlimit:0;stroke-opacity:1;stroke-dasharray:none;stroke-dashoffset:0;marker:none;visibility:visible;display:inline;overflow:visible;enable-background:accumulate"
       id="path2985"
       sodipodi:cx="90"
       sodipodi:cy="522.36218"
       sodipodi:rx="47.142857"
       sodipodi:ry="94.285713"
       d="m 137.14286,522.36218 a 47.142857,94.285713 0 1 1 -94.285717,0 47.142857,94.285713 0 1 1 94.285717,0 z"
       transform="matrix(1.8068313,0,0,1.6854427,-48.491657,-305.90651)" />
    <text
       xml:space="preserve"
       style="font-size:32px;font-style:normal;font-variant:normal;font-weight:normal;font-stretch:normal;text-align:start;line-height:125%;letter-spacing:0px;word-spacing:0px;writing-mode:lr-tb;text-anchor:start;fill:#000000;fill-opacity:1;stroke:none;font-family:Sans;-inkscape-font-specification:Sans"
       x="58.57143"
       y="598.07648"
       id="text3763"
       sodipodi:linespacing="125%"><tspan
         sodipodi:role="line"
         id="tspan3765"
         x="58.57143"
         y="598.07648" /></text>
    <text
       xml:space="preserve"
       style="font-size:32px;font-style:normal;font-variant:normal;font-weight:normal;font-stretch:normal;text-align:start;line-height:125%;letter-spacing:0px;word-spacing:0px;writing-mode:lr-tb;text-anchor:start;fill:#000000;fill-opacity:1;stroke:none;font-family:Sans;-inkscape-font-specification:Sans"
       x="113.17004"
       y="503.50504"
       id="text3767"
       sodipodi:linespacing="125%"><tspan
         sodipodi:role="line"
         id="tspan3769"
         x="113.17004"
         y="503.50504"
         style="text-align:center;text-anchor:middle">livro</tspan><tspan
         sodipodi:role="line"
         x="113.17004"
         y="543.505"
         style="text-align:center;text-anchor:middle"
         id="tspan4298">viagem</tspan><tspan
         sodipodi:role="line"
         x="113.17004"
         y="583.505"
         style="text-align:center;text-anchor:middle"
         id="tspan4296">abrir</tspan><tspan
         sodipodi:role="line"
         x="113.17004"
         y="623.505"
         style="text-align:center;text-anchor:middle"
         id="tspan3836">sonhar</tspan><tspan
         sodipodi:role="line"
         x="113.17004"
         y="663.505"
         style="text-align:center;text-anchor:middle"
         id="tspan4294">ele</tspan><tspan
         sodipodi:role="line"
         x="113.17004"
         y="703.505"
         style="text-align:center;text-anchor:middle"
         id="tspan3832" /><tspan
         sodipodi:role="line"
         x="113.17004"
         y="743.505"
         style="text-align:center;text-anchor:middle"
         id="tspan3830" /><tspan
         sodipodi:role="line"
         x="113.17004"
         y="783.505"
         id="tspan3826"
         style="text-align:center;text-anchor:middle" /></text>
    <g
       id="g3779"
       transform="translate(5.5604313,-6)">
      <path
         transform="matrix(0.30894558,0,0,0.30894558,81.198979,359.09565)"
         d="m 94.285712,301.64789 c 0,3.5504 -2.558373,6.42857 -5.714286,6.42857 -3.155913,0 -5.714285,-2.87817 -5.714285,-6.42857 0,-3.5504 2.558372,-6.42857 5.714285,-6.42857 3.155913,0 5.714286,2.87817 5.714286,6.42857 z"
         sodipodi:ry="6.4285712"
         sodipodi:rx="5.7142859"
         sodipodi:cy="301.64789"
         sodipodi:cx="88.571426"
         id="path3771"
         style="color:#000000;fill:#000000;stroke:#000000;stroke-width:1;stroke-linecap:square;stroke-linejoin:miter;stroke-miterlimit:0;stroke-opacity:1;stroke-dasharray:none;stroke-dashoffset:0;marker:none;visibility:visible;display:inline;overflow:visible;enable-background:accumulate"
         sodipodi:type="arc" />
      <path
         sodipodi:type="arc"
         style="color:#000000;fill:#000000;stroke:#000000;stroke-width:1;stroke-linecap:square;stroke-linejoin:miter;stroke-miterlimit:0;stroke-opacity:1;stroke-dasharray:none;stroke-dashoffset:0;marker:none;visibility:visible;display:inline;overflow:visible;enable-background:accumulate"
         id="path3775"
         sodipodi:cx="88.571426"
         sodipodi:cy="301.64789"
         sodipodi:rx="5.7142859"
         sodipodi:ry="6.4285712"
         d="m 94.285712,301.64789 c 0,3.5504 -2.558373,6.42857 -5.714286,6.42857 -3.155913,0 -5.714285,-2.87817 -5.714285,-6.42857 0,-3.5504 2.558372,-6.42857 5.714285,-6.42857 3.155913,0 5.714286,2.87817 5.714286,6.42857 z"
         transform="matrix(0.30894558,0,0,0.30894558,81.198979,365.57517)" />
      <path
         transform="matrix(0.30894558,0,0,0.30894558,81.198979,372.05467)"
         d="m 94.285712,301.64789 c 0,3.5504 -2.558373,6.42857 -5.714286,6.42857 -3.155913,0 -5.714285,-2.87817 -5.714285,-6.42857 0,-3.5504 2.558372,-6.42857 5.714285,-6.42857 3.155913,0 5.714286,2.87817 5.714286,6.42857 z"
         sodipodi:ry="6.4285712"
         sodipodi:rx="5.7142859"
         sodipodi:cy="301.64789"
         sodipodi:cx="88.571426"
         id="path3777"
         style="color:#000000;fill:#000000;stroke:#000000;stroke-width:1;stroke-linecap:square;stroke-linejoin:miter;stroke-miterlimit:0;stroke-opacity:1;stroke-dasharray:none;stroke-dashoffset:0;marker:none;visibility:visible;display:inline;overflow:visible;enable-background:accumulate"
         sodipodi:type="arc" />
    </g>
    <g
       transform="translate(5.5604313,234)"
       id="g3784">
      <path
         sodipodi:type="arc"
         style="color:#000000;fill:#000000;stroke:#000000;stroke-width:1;stroke-linecap:square;stroke-linejoin:miter;stroke-miterlimit:0;stroke-opacity:1;stroke-dasharray:none;stroke-dashoffset:0;marker:none;visibility:visible;display:inline;overflow:visible;enable-background:accumulate"
         id="path3786"
         sodipodi:cx="88.571426"
         sodipodi:cy="301.64789"
         sodipodi:rx="5.7142859"
         sodipodi:ry="6.4285712"
         d="m 94.285712,301.64789 c 0,3.5504 -2.558373,6.42857 -5.714286,6.42857 -3.155913,0 -5.714285,-2.87817 -5.714285,-6.42857 0,-3.5504 2.558372,-6.42857 5.714285,-6.42857 3.155913,0 5.714286,2.87817 5.714286,6.42857 z"
         transform="matrix(0.30894558,0,0,0.30894558,81.198979,359.09565)" />
      <path
         transform="matrix(0.30894558,0,0,0.30894558,81.198979,365.57517)"
         d="m 94.285712,301.64789 c 0,3.5504 -2.558373,6.42857 -5.714286,6.42857 -3.155913,0 -5.714285,-2.87817 -5.714285,-6.42857 0,-3.5504 2.558372,-6.42857 5.714285,-6.42857 3.155913,0 5.714286,2.87817 5.714286,6.42857 z"
         sodipodi:ry="6.4285712"
         sodipodi:rx="5.7142859"
         sodipodi:cy="301.64789"
         sodipodi:cx="88.571426"
         id="path3788"
         style="color:#000000;fill:#000000;stroke:#000000;stroke-width:1;stroke-linecap:square;stroke-linejoin:miter;stroke-miterlimit:0;stroke-opacity:1;stroke-dasharray:none;stroke-dashoffset:0;marker:none;visibility:visible;display:inline;overflow:visible;enable-background:accumulate"
         sodipodi:type="arc" />
      <path
         sodipodi:type="arc"
         style="color:#000000;fill:#000000;stroke:#000000;stroke-width:1;stroke-linecap:square;stroke-linejoin:miter;stroke-miterlimit:0;stroke-opacity:1;stroke-dasharray:none;stroke-dashoffset:0;marker:none;visibility:visible;display:inline;overflow:visible;enable-background:accumulate"
         id="path3790"
         sodipodi:cx="88.571426"
         sodipodi:cy="301.64789"
         sodipodi:rx="5.7142859"
         sodipodi:ry="6.4285712"
         d="m 94.285712,301.64789 c 0,3.5504 -2.558373,6.42857 -5.714286,6.42857 -3.155913,0 -5.714285,-2.87817 -5.714285,-6.42857 0,-3.5504 2.558372,-6.42857 5.714285,-6.42857 3.155913,0 5.714286,2.87817 5.714286,6.42857 z"
         transform="matrix(0.30894558,0,0,0.30894558,81.198979,372.05467)" />
    </g>
    <path
       transform="matrix(1.8087476,0,0,1.3530675,171.33588,-132.28628)"
       d="m 137.14286,522.36218 a 47.142857,94.285713 0 1 1 -94.285717,0 47.142857,94.285713 0 1 1 94.285717,0 z"
       sodipodi:ry="94.285713"
       sodipodi:rx="47.142857"
       sodipodi:cy="522.36218"
       sodipodi:cx="90"
       id="path3794"
       style="color:#000000;fill:none;stroke:#000000;stroke-width:1;stroke-linecap:square;stroke-linejoin:miter;stroke-miterlimit:0;stroke-opacity:1;stroke-dasharray:none;stroke-dashoffset:0;marker:none;visibility:visible;display:inline;overflow:visible;enable-background:accumulate"
       sodipodi:type="arc" />
    <text
       sodipodi:linespacing="125%"
       id="text3796"
       y="544.07648"
       x="286.61536"
       style="font-size:32px;font-style:normal;font-variant:normal;font-weight:normal;font-stretch:normal;text-align:start;line-height:125%;letter-spacing:0px;word-spacing:0px;writing-mode:lr-tb;text-anchor:start;fill:#000000;fill-opacity:1;stroke:none;font-family:Sans;-inkscape-font-specification:Sans"
       xml:space="preserve"><tspan
         y="544.07648"
         x="286.61536"
         id="tspan3798"
         sodipodi:role="line">subst.</tspan></text>
    <text
       xml:space="preserve"
       style="font-size:32px;font-style:normal;font-variant:normal;font-weight:normal;font-stretch:normal;text-align:start;line-height:125%;letter-spacing:0px;word-spacing:0px;writing-mode:lr-tb;text-anchor:start;fill:#000000;fill-opacity:1;stroke:none;font-family:Sans;-inkscape-font-specification:Sans"
       x="288.67004"
       y="584.07648"
       id="text3800"
       sodipodi:linespacing="125%"><tspan
         sodipodi:role="line"
         id="tspan3802"
         x="288.67004"
         y="584.07648">verbo</tspan></text>
    <text
       sodipodi:linespacing="125%"
       id="text3804"
       y="624.07648"
       x="261.95911"
       style="font-size:32px;font-style:normal;font-variant:normal;font-weight:normal;font-stretch:normal;text-align:start;line-height:125%;letter-spacing:0px;word-spacing:0px;writing-mode:lr-tb;text-anchor:start;fill:#000000;fill-opacity:1;stroke:none;font-family:Sans;-inkscape-font-specification:Sans"
       xml:space="preserve"><tspan
         y="624.07648"
         x="261.95911"
         id="tspan3806"
         sodipodi:role="line">pronome</tspan></text>
    <g
       transform="translate(225.56043,26)"
       id="g3808">
      <path
         sodipodi:type="arc"
         style="color:#000000;fill:#000000;stroke:#000000;stroke-width:1;stroke-linecap:square;stroke-linejoin:miter;stroke-miterlimit:0;stroke-opacity:1;stroke-dasharray:none;stroke-dashoffset:0;marker:none;visibility:visible;display:inline;overflow:visible;enable-background:accumulate"
         id="path3810"
         sodipodi:cx="88.571426"
         sodipodi:cy="301.64789"
         sodipodi:rx="5.7142859"
         sodipodi:ry="6.4285712"
         d="m 94.285712,301.64789 c 0,3.5504 -2.558373,6.42857 -5.714286,6.42857 -3.155913,0 -5.714285,-2.87817 -5.714285,-6.42857 0,-3.5504 2.558372,-6.42857 5.714285,-6.42857 3.155913,0 5.714286,2.87817 5.714286,6.42857 z"
         transform="matrix(0.30894558,0,0,0.30894558,81.198979,359.09565)" />
      <path
         transform="matrix(0.30894558,0,0,0.30894558,81.198979,365.57517)"
         d="m 94.285712,301.64789 c 0,3.5504 -2.558373,6.42857 -5.714286,6.42857 -3.155913,0 -5.714285,-2.87817 -5.714285,-6.42857 0,-3.5504 2.558372,-6.42857 5.714285,-6.42857 3.155913,0 5.714286,2.87817 5.714286,6.42857 z"
         sodipodi:ry="6.4285712"
         sodipodi:rx="5.7142859"
         sodipodi:cy="301.64789"
         sodipodi:cx="88.571426"
         id="path3812"
         style="color:#000000;fill:#000000;stroke:#000000;stroke-width:1;stroke-linecap:square;stroke-linejoin:miter;stroke-miterlimit:0;stroke-opacity:1;stroke-dasharray:none;stroke-dashoffset:0;marker:none;visibility:visible;display:inline;overflow:visible;enable-background:accumulate"
         sodipodi:type="arc" />
      <path
         sodipodi:type="arc"
         style="color:#000000;fill:#000000;stroke:#000000;stroke-width:1;stroke-linecap:square;stroke-linejoin:miter;stroke-miterlimit:0;stroke-opacity:1;stroke-dasharray:none;stroke-dashoffset:0;marker:none;visibility:visible;display:inline;overflow:visible;enable-background:accumulate"
         id="path3814"
         sodipodi:cx="88.571426"
         sodipodi:cy="301.64789"
         sodipodi:rx="5.7142859"
         sodipodi:ry="6.4285712"
         d="m 94.285712,301.64789 c 0,3.5504 -2.558373,6.42857 -5.714286,6.42857 -3.155913,0 -5.714285,-2.87817 -5.714285,-6.42857 0,-3.5504 2.558372,-6.42857 5.714285,-6.42857 3.155913,0 5.714286,2.87817 5.714286,6.42857 z"
         transform="matrix(0.30894558,0,0,0.30894558,81.198979,372.05467)" />
    </g>
    <g
       id="g3816"
       transform="translate(225.56043,206)">
      <path
         transform="matrix(0.30894558,0,0,0.30894558,81.198979,359.09565)"
         d="m 94.285712,301.64789 c 0,3.5504 -2.558373,6.42857 -5.714286,6.42857 -3.155913,0 -5.714285,-2.87817 -5.714285,-6.42857 0,-3.5504 2.558372,-6.42857 5.714285,-6.42857 3.155913,0 5.714286,2.87817 5.714286,6.42857 z"
         sodipodi:ry="6.4285712"
         sodipodi:rx="5.7142859"
         sodipodi:cy="301.64789"
         sodipodi:cx="88.571426"
         id="path3818"
         style="color:#000000;fill:#000000;stroke:#000000;stroke-width:1;stroke-linecap:square;stroke-linejoin:miter;stroke-miterlimit:0;stroke-opacity:1;stroke-dasharray:none;stroke-dashoffset:0;marker:none;visibility:visible;display:inline;overflow:visible;enable-background:accumulate"
         sodipodi:type="arc" />
      <path
         sodipodi:type="arc"
         style="color:#000000;fill:#000000;stroke:#000000;stroke-width:1;stroke-linecap:square;stroke-linejoin:miter;stroke-miterlimit:0;stroke-opacity:1;stroke-dasharray:none;stroke-dashoffset:0;marker:none;visibility:visible;display:inline;overflow:visible;enable-background:accumulate"
         id="path3820"
         sodipodi:cx="88.571426"
         sodipodi:cy="301.64789"
         sodipodi:rx="5.7142859"
         sodipodi:ry="6.4285712"
         d="m 94.285712,301.64789 c 0,3.5504 -2.558373,6.42857 -5.714286,6.42857 -3.155913,0 -5.714285,-2.87817 -5.714285,-6.42857 0,-3.5504 2.558372,-6.42857 5.714285,-6.42857 3.155913,0 5.714286,2.87817 5.714286,6.42857 z"
         transform="matrix(0.30894558,0,0,0.30894558,81.198979,365.57517)" />
      <path
         transform="matrix(0.30894558,0,0,0.30894558,81.198979,372.05467)"
         d="m 94.285712,301.64789 c 0,3.5504 -2.558373,6.42857 -5.714286,6.42857 -3.155913,0 -5.714285,-2.87817 -5.714285,-6.42857 0,-3.5504 2.558372,-6.42857 5.714285,-6.42857 3.155913,0 5.714286,2.87817 5.714286,6.42857 z"
         sodipodi:ry="6.4285712"
         sodipodi:rx="5.7142859"
         sodipodi:cy="301.64789"
         sodipodi:cx="88.571426"
         id="path3822"
         style="color:#000000;fill:#000000;stroke:#000000;stroke-width:1;stroke-linecap:square;stroke-linejoin:miter;stroke-miterlimit:0;stroke-opacity:1;stroke-dasharray:none;stroke-dashoffset:0;marker:none;visibility:visible;display:inline;overflow:visible;enable-background:accumulate"
         sodipodi:type="arc" />
    </g>
    <path
       transform="matrix(1.8068313,0,0,1.6854427,411.50834,-305.90651)"
       d="m 137.14286,522.36218 a 47.142857,94.285713 0 1 1 -94.285717,0 47.142857,94.285713 0 1 1 94.285717,0 z"
       sodipodi:ry="94.285713"
       sodipodi:rx="47.142857"
       sodipodi:cy="522.36218"
       sodipodi:cx="90"
       id="path4570"
       style="color:#000000;fill:none;stroke:#000000;stroke-width:1;stroke-linecap:square;stroke-linejoin:miter;stroke-miterlimit:0;stroke-opacity:1;stroke-dasharray:none;stroke-dashoffset:0;marker:none;visibility:visible;display:inline;overflow:visible;enable-background:accumulate"
       sodipodi:type="arc" />
    <text
       sodipodi:linespacing="125%"
       id="text4572"
       y="503.50504"
       x="573.17004"
       style="font-size:32px;font-style:normal;font-variant:normal;font-weight:normal;font-stretch:normal;text-align:start;line-height:125%;letter-spacing:0px;word-spacing:0px;writing-mode:lr-tb;text-anchor:start;fill:#000000;fill-opacity:1;stroke:none;font-family:Sans;-inkscape-font-specification:Sans"
       xml:space="preserve"><tspan
         style="text-align:center;text-anchor:middle"
         y="503.50504"
         x="573.17004"
         id="tspan4574"
         sodipodi:role="line">banco</tspan><tspan
         id="tspan4576"
         style="text-align:center;text-anchor:middle"
         y="543.505"
         x="573.17004"
         sodipodi:role="line">viagem</tspan><tspan
         id="tspan4578"
         style="text-align:center;text-anchor:middle"
         y="583.505"
         x="573.17004"
         sodipodi:role="line">abrir</tspan><tspan
         id="tspan4580"
         style="text-align:center;text-anchor:middle"
         y="623.505"
         x="573.17004"
         sodipodi:role="line">sonhar</tspan><tspan
         id="tspan4582"
         style="text-align:center;text-anchor:middle"
         y="663.505"
         x="573.17004"
         sodipodi:role="line">ele</tspan><tspan
         id="tspan4584"
         style="text-align:center;text-anchor:middle"
         y="703.505"
         x="573.17004"
         sodipodi:role="line" /><tspan
         id="tspan4586"
         style="text-align:center;text-anchor:middle"
         y="743.505"
         x="573.17004"
         sodipodi:role="line" /><tspan
         style="text-align:center;text-anchor:middle"
         id="tspan4588"
         y="783.505"
         x="573.17004"
         sodipodi:role="line" /></text>
    <g
       transform="translate(465.56043,-6)"
       id="g4590">
      <path
         sodipodi:type="arc"
         style="color:#000000;fill:#000000;stroke:#000000;stroke-width:1;stroke-linecap:square;stroke-linejoin:miter;stroke-miterlimit:0;stroke-opacity:1;stroke-dasharray:none;stroke-dashoffset:0;marker:none;visibility:visible;display:inline;overflow:visible;enable-background:accumulate"
         id="path4592"
         sodipodi:cx="88.571426"
         sodipodi:cy="301.64789"
         sodipodi:rx="5.7142859"
         sodipodi:ry="6.4285712"
         d="m 94.285712,301.64789 c 0,3.5504 -2.558373,6.42857 -5.714286,6.42857 -3.155913,0 -5.714285,-2.87817 -5.714285,-6.42857 0,-3.5504 2.558372,-6.42857 5.714285,-6.42857 3.155913,0 5.714286,2.87817 5.714286,6.42857 z"
         transform="matrix(0.30894558,0,0,0.30894558,81.198979,359.09565)" />
      <path
         transform="matrix(0.30894558,0,0,0.30894558,81.198979,365.57517)"
         d="m 94.285712,301.64789 c 0,3.5504 -2.558373,6.42857 -5.714286,6.42857 -3.155913,0 -5.714285,-2.87817 -5.714285,-6.42857 0,-3.5504 2.558372,-6.42857 5.714285,-6.42857 3.155913,0 5.714286,2.87817 5.714286,6.42857 z"
         sodipodi:ry="6.4285712"
         sodipodi:rx="5.7142859"
         sodipodi:cy="301.64789"
         sodipodi:cx="88.571426"
         id="path4594"
         style="color:#000000;fill:#000000;stroke:#000000;stroke-width:1;stroke-linecap:square;stroke-linejoin:miter;stroke-miterlimit:0;stroke-opacity:1;stroke-dasharray:none;stroke-dashoffset:0;marker:none;visibility:visible;display:inline;overflow:visible;enable-background:accumulate"
         sodipodi:type="arc" />
      <path
         sodipodi:type="arc"
         style="color:#000000;fill:#000000;stroke:#000000;stroke-width:1;stroke-linecap:square;stroke-linejoin:miter;stroke-miterlimit:0;stroke-opacity:1;stroke-dasharray:none;stroke-dashoffset:0;marker:none;visibility:visible;display:inline;overflow:visible;enable-background:accumulate"
         id="path4596"
         sodipodi:cx="88.571426"
         sodipodi:cy="301.64789"
         sodipodi:rx="5.7142859"
         sodipodi:ry="6.4285712"
         d="m 94.285712,301.64789 c 0,3.5504 -2.558373,6.42857 -5.714286,6.42857 -3.155913,0 -5.714285,-2.87817 -5.714285,-6.42857 0,-3.5504 2.558372,-6.42857 5.714285,-6.42857 3.155913,0 5.714286,2.87817 5.714286,6.42857 z"
         transform="matrix(0.30894558,0,0,0.30894558,81.198979,372.05467)" />
    </g>
    <g
       id="g4598"
       transform="translate(465.56043,234)">
      <path
         transform="matrix(0.30894558,0,0,0.30894558,81.198979,359.09565)"
         d="m 94.285712,301.64789 c 0,3.5504 -2.558373,6.42857 -5.714286,6.42857 -3.155913,0 -5.714285,-2.87817 -5.714285,-6.42857 0,-3.5504 2.558372,-6.42857 5.714285,-6.42857 3.155913,0 5.714286,2.87817 5.714286,6.42857 z"
         sodipodi:ry="6.4285712"
         sodipodi:rx="5.7142859"
         sodipodi:cy="301.64789"
         sodipodi:cx="88.571426"
         id="path4600"
         style="color:#000000;fill:#000000;stroke:#000000;stroke-width:1;stroke-linecap:square;stroke-linejoin:miter;stroke-miterlimit:0;stroke-opacity:1;stroke-dasharray:none;stroke-dashoffset:0;marker:none;visibility:visible;display:inline;overflow:visible;enable-background:accumulate"
         sodipodi:type="arc" />
      <path
         sodipodi:type="arc"
         style="color:#000000;fill:#000000;stroke:#000000;stroke-width:1;stroke-linecap:square;stroke-linejoin:miter;stroke-miterlimit:0;stroke-opacity:1;stroke-dasharray:none;stroke-dashoffset:0;marker:none;visibility:visible;display:inline;overflow:visible;enable-background:accumulate"
         id="path4602"
         sodipodi:cx="88.571426"
         sodipodi:cy="301.64789"
         sodipodi:rx="5.7142859"
         sodipodi:ry="6.4285712"
         d="m 94.285712,301.64789 c 0,3.5504 -2.558373,6.42857 -5.714286,6.42857 -3.155913,0 -5.714285,-2.87817 -5.714285,-6.42857 0,-3.5504 2.558372,-6.42857 5.714285,-6.42857 3.155913,0 5.714286,2.87817 5.714286,6.42857 z"
         transform="matrix(0.30894558,0,0,0.30894558,81.198979,365.57517)" />
      <path
         transform="matrix(0.30894558,0,0,0.30894558,81.198979,372.05467)"
         d="m 94.285712,301.64789 c 0,3.5504 -2.558373,6.42857 -5.714286,6.42857 -3.155913,0 -5.714285,-2.87817 -5.714285,-6.42857 0,-3.5504 2.558372,-6.42857 5.714285,-6.42857 3.155913,0 5.714286,2.87817 5.714286,6.42857 z"
         sodipodi:ry="6.4285712"
         sodipodi:rx="5.7142859"
         sodipodi:cy="301.64789"
         sodipodi:cx="88.571426"
         id="path4604"
         style="color:#000000;fill:#000000;stroke:#000000;stroke-width:1;stroke-linecap:square;stroke-linejoin:miter;stroke-miterlimit:0;stroke-opacity:1;stroke-dasharray:none;stroke-dashoffset:0;marker:none;visibility:visible;display:inline;overflow:visible;enable-background:accumulate"
         sodipodi:type="arc" />
    </g>
    <path
       sodipodi:type="arc"
       style="color:#000000;fill:none;stroke:#000000;stroke-width:1;stroke-linecap:square;stroke-linejoin:miter;stroke-miterlimit:0;stroke-opacity:1;stroke-dasharray:none;stroke-dashoffset:0;marker:none;visibility:visible;display:inline;overflow:visible;enable-background:accumulate"
       id="path4606"
       sodipodi:cx="90"
       sodipodi:cy="522.36218"
       sodipodi:rx="47.142857"
       sodipodi:ry="94.285713"
       d="m 137.14286,522.36218 a 47.142857,94.285713 0 1 1 -94.285717,0 47.142857,94.285713 0 1 1 94.285717,0 z"
       transform="matrix(1.8087476,0,0,1.3530675,631.33588,-132.28628)" />
    <text
       xml:space="preserve"
       style="font-size:32px;font-style:normal;font-variant:normal;font-weight:normal;font-stretch:normal;text-align:start;line-height:125%;letter-spacing:0px;word-spacing:0px;writing-mode:lr-tb;text-anchor:start;fill:#000000;fill-opacity:1;stroke:none;font-family:Sans;-inkscape-font-specification:Sans"
       x="746.61536"
       y="544.07648"
       id="text4608"
       sodipodi:linespacing="125%"><tspan
         sodipodi:role="line"
         id="tspan4610"
         x="746.61536"
         y="544.07648">subst.</tspan></text>
    <text
       sodipodi:linespacing="125%"
       id="text4612"
       y="584.07648"
       x="748.67004"
       style="font-size:32px;font-style:normal;font-variant:normal;font-weight:normal;font-stretch:normal;text-align:start;line-height:125%;letter-spacing:0px;word-spacing:0px;writing-mode:lr-tb;text-anchor:start;fill:#000000;fill-opacity:1;stroke:none;font-family:Sans;-inkscape-font-specification:Sans"
       xml:space="preserve"><tspan
         y="584.07648"
         x="748.67004"
         id="tspan4614"
         sodipodi:role="line">verbo</tspan></text>
    <text
       xml:space="preserve"
       style="font-size:32px;font-style:normal;font-variant:normal;font-weight:normal;font-stretch:normal;text-align:start;line-height:125%;letter-spacing:0px;word-spacing:0px;writing-mode:lr-tb;text-anchor:start;fill:#000000;fill-opacity:1;stroke:none;font-family:Sans;-inkscape-font-specification:Sans"
       x="721.95911"
       y="624.07648"
       id="text4616"
       sodipodi:linespacing="125%"><tspan
         sodipodi:role="line"
         id="tspan4618"
         x="721.95911"
         y="624.07648">pronome</tspan></text>
    <g
       id="g4620"
       transform="translate(685.56043,26)">
      <path
         transform="matrix(0.30894558,0,0,0.30894558,81.198979,359.09565)"
         d="m 94.285712,301.64789 c 0,3.5504 -2.558373,6.42857 -5.714286,6.42857 -3.155913,0 -5.714285,-2.87817 -5.714285,-6.42857 0,-3.5504 2.558372,-6.42857 5.714285,-6.42857 3.155913,0 5.714286,2.87817 5.714286,6.42857 z"
         sodipodi:ry="6.4285712"
         sodipodi:rx="5.7142859"
         sodipodi:cy="301.64789"
         sodipodi:cx="88.571426"
         id="path4622"
         style="color:#000000;fill:#000000;stroke:#000000;stroke-width:1;stroke-linecap:square;stroke-linejoin:miter;stroke-miterlimit:0;stroke-opacity:1;stroke-dasharray:none;stroke-dashoffset:0;marker:none;visibility:visible;display:inline;overflow:visible;enable-background:accumulate"
         sodipodi:type="arc" />
      <path
         sodipodi:type="arc"
         style="color:#000000;fill:#000000;stroke:#000000;stroke-width:1;stroke-linecap:square;stroke-linejoin:miter;stroke-miterlimit:0;stroke-opacity:1;stroke-dasharray:none;stroke-dashoffset:0;marker:none;visibility:visible;display:inline;overflow:visible;enable-background:accumulate"
         id="path4624"
         sodipodi:cx="88.571426"
         sodipodi:cy="301.64789"
         sodipodi:rx="5.7142859"
         sodipodi:ry="6.4285712"
         d="m 94.285712,301.64789 c 0,3.5504 -2.558373,6.42857 -5.714286,6.42857 -3.155913,0 -5.714285,-2.87817 -5.714285,-6.42857 0,-3.5504 2.558372,-6.42857 5.714285,-6.42857 3.155913,0 5.714286,2.87817 5.714286,6.42857 z"
         transform="matrix(0.30894558,0,0,0.30894558,81.198979,365.57517)" />
      <path
         transform="matrix(0.30894558,0,0,0.30894558,81.198979,372.05467)"
         d="m 94.285712,301.64789 c 0,3.5504 -2.558373,6.42857 -5.714286,6.42857 -3.155913,0 -5.714285,-2.87817 -5.714285,-6.42857 0,-3.5504 2.558372,-6.42857 5.714285,-6.42857 3.155913,0 5.714286,2.87817 5.714286,6.42857 z"
         sodipodi:ry="6.4285712"
         sodipodi:rx="5.7142859"
         sodipodi:cy="301.64789"
         sodipodi:cx="88.571426"
         id="path4626"
         style="color:#000000;fill:#000000;stroke:#000000;stroke-width:1;stroke-linecap:square;stroke-linejoin:miter;stroke-miterlimit:0;stroke-opacity:1;stroke-dasharray:none;stroke-dashoffset:0;marker:none;visibility:visible;display:inline;overflow:visible;enable-background:accumulate"
         sodipodi:type="arc" />
    </g>
    <g
       transform="translate(685.56043,206)"
       id="g4628">
      <path
         sodipodi:type="arc"
         style="color:#000000;fill:#000000;stroke:#000000;stroke-width:1;stroke-linecap:square;stroke-linejoin:miter;stroke-miterlimit:0;stroke-opacity:1;stroke-dasharray:none;stroke-dashoffset:0;marker:none;visibility:visible;display:inline;overflow:visible;enable-background:accumulate"
         id="path4630"
         sodipodi:cx="88.571426"
         sodipodi:cy="301.64789"
         sodipodi:rx="5.7142859"
         sodipodi:ry="6.4285712"
         d="m 94.285712,301.64789 c 0,3.5504 -2.558373,6.42857 -5.714286,6.42857 -3.155913,0 -5.714285,-2.87817 -5.714285,-6.42857 0,-3.5504 2.558372,-6.42857 5.714285,-6.42857 3.155913,0 5.714286,2.87817 5.714286,6.42857 z"
         transform="matrix(0.30894558,0,0,0.30894558,81.198979,359.09565)" />
      <path
         transform="matrix(0.30894558,0,0,0.30894558,81.198979,365.57517)"
         d="m 94.285712,301.64789 c 0,3.5504 -2.558373,6.42857 -5.714286,6.42857 -3.155913,0 -5.714285,-2.87817 -5.714285,-6.42857 0,-3.5504 2.558372,-6.42857 5.714285,-6.42857 3.155913,0 5.714286,2.87817 5.714286,6.42857 z"
         sodipodi:ry="6.4285712"
         sodipodi:rx="5.7142859"
         sodipodi:cy="301.64789"
         sodipodi:cx="88.571426"
         id="path4632"
         style="color:#000000;fill:#000000;stroke:#000000;stroke-width:1;stroke-linecap:square;stroke-linejoin:miter;stroke-miterlimit:0;stroke-opacity:1;stroke-dasharray:none;stroke-dashoffset:0;marker:none;visibility:visible;display:inline;overflow:visible;enable-background:accumulate"
         sodipodi:type="arc" />
      <path
         sodipodi:type="arc"
         style="color:#000000;fill:#000000;stroke:#000000;stroke-width:1;stroke-linecap:square;stroke-linejoin:miter;stroke-miterlimit:0;stroke-opacity:1;stroke-dasharray:none;stroke-dashoffset:0;marker:none;visibility:visible;display:inline;overflow:visible;enable-background:accumulate"
         id="path4634"
         sodipodi:cx="88.571426"
         sodipodi:cy="301.64789"
         sodipodi:rx="5.7142859"
         sodipodi:ry="6.4285712"
         d="m 94.285712,301.64789 c 0,3.5504 -2.558373,6.42857 -5.714286,6.42857 -3.155913,0 -5.714285,-2.87817 -5.714285,-6.42857 0,-3.5504 2.558372,-6.42857 5.714285,-6.42857 3.155913,0 5.714286,2.87817 5.714286,6.42857 z"
         transform="matrix(0.30894558,0,0,0.30894558,81.198979,372.05467)" />
    </g>
    <path
       style="color:#000000;fill:#800000;fill-opacity:1;fill-rule:nonzero;stroke:#800000;stroke-width:1;stroke-linecap:square;stroke-linejoin:miter;stroke-miterlimit:0;stroke-opacity:1;stroke-dasharray:none;stroke-dashoffset:0;marker:none;visibility:visible;display:inline;overflow:visible;enable-background:accumulate;marker-end:url(#Arrow1Lend)"
       d="m 630.33519,495.76813 108.08632,36.36549"
       id="path4636"
       inkscape:connector-curvature="0" />
    <path
       style="color:#000000;fill:#800000;fill-opacity:1;fill-rule:nonzero;stroke:#800000;stroke-width:1;stroke-linecap:square;stroke-linejoin:miter;stroke-miterlimit:0;stroke-opacity:1;stroke-dasharray:none;stroke-dashoffset:0;marker:none;marker-end:url(#Arrow1Lend);visibility:visible;display:inline;overflow:visible;enable-background:accumulate"
       d="m 632.35549,495.76813 100.3696,72.38192 4.68627,3.37952"
       id="path4638"
       inkscape:connector-curvature="0"
       sodipodi:nodetypes="ccc" />
    <path
       style="color:#000000;fill:#000000;fill-opacity:1;fill-rule:nonzero;stroke:#000000;stroke-width:1;stroke-linecap:square;stroke-linejoin:miter;stroke-miterlimit:0;stroke-opacity:1;stroke-dasharray:none;stroke-dashoffset:0;marker:none;visibility:visible;display:inline;overflow:visible;enable-background:accumulate;marker-end:url(#Arrow1Lend)"
       d="m 635.38595,534.15393 101.01526,-3.03046"
       id="path4640"
       inkscape:connector-curvature="0" />
    <path
       style="color:#000000;fill:#000000;fill-opacity:1;fill-rule:nonzero;stroke:#000000;stroke-width:1;stroke-linecap:square;stroke-linejoin:miter;stroke-miterlimit:0;stroke-opacity:1;stroke-dasharray:none;stroke-dashoffset:0;marker:none;visibility:visible;display:inline;overflow:visible;enable-background:accumulate;marker-end:url(#Arrow1Lend)"
       d="m 615.1829,572.53972 120.20815,0"
       id="path4642"
       inkscape:connector-curvature="0" />
    <path
       style="color:#000000;fill:#000000;fill-opacity:1;fill-rule:nonzero;stroke:#000000;stroke-width:1;stroke-linecap:square;stroke-linejoin:miter;stroke-miterlimit:0;stroke-opacity:1;stroke-dasharray:none;stroke-dashoffset:0;marker:none;visibility:visible;display:inline;overflow:visible;enable-background:accumulate;marker-end:url(#Arrow1Lend)"
       d="M 632.35549,613.95598 736.40121,572.53972"
       id="path4644"
       inkscape:connector-curvature="0" />
    <path
       style="color:#000000;fill:#000000;fill-opacity:1;fill-rule:nonzero;stroke:#000000;stroke-width:1;stroke-linecap:square;stroke-linejoin:miter;stroke-miterlimit:0;stroke-opacity:1;stroke-dasharray:none;stroke-dashoffset:0;marker:none;visibility:visible;display:inline;overflow:visible;enable-background:accumulate;marker-end:url(#Arrow1Lend)"
       d="M 609.12198,656.38238 718.21846,616.98644"
       id="path4646"
       inkscape:connector-curvature="0" />
    <path
       style="color:#000000;fill:#000000;fill-opacity:1;fill-rule:nonzero;stroke:#000000;stroke-width:1;stroke-linecap:square;stroke-linejoin:miter;stroke-miterlimit:0;stroke-opacity:1;stroke-dasharray:none;stroke-dashoffset:0;marker:none;visibility:visible;display:inline;overflow:visible;enable-background:accumulate;marker-end:url(#Arrow1Lend)"
       d="m 151.52288,493.74783 125.25892,40.4061"
       id="path4648"
       inkscape:connector-curvature="0" />
    <path
       style="color:#000000;fill:#000000;fill-opacity:1;fill-rule:nonzero;stroke:#000000;stroke-width:1;stroke-linecap:square;stroke-linejoin:miter;stroke-miterlimit:0;stroke-opacity:1;stroke-dasharray:none;stroke-dashoffset:0;marker:none;visibility:visible;display:inline;overflow:visible;enable-background:accumulate;marker-end:url(#Arrow1Lend)"
       d="m 174.75639,536.17423 100.0051,-3.03046"
       id="path4650"
       inkscape:connector-curvature="0" />
    <path
       style="color:#000000;fill:#000000;fill-opacity:1;fill-rule:nonzero;stroke:#000000;stroke-width:1;stroke-linecap:square;stroke-linejoin:miter;stroke-miterlimit:0;stroke-opacity:1;stroke-dasharray:none;stroke-dashoffset:0;marker:none;visibility:visible;display:inline;overflow:visible;enable-background:accumulate;marker-end:url(#Arrow1Lend)"
       d="m 155.56349,572.53972 126.26907,2.02031"
       id="path4652"
       inkscape:connector-curvature="0" />
    <path
       style="color:#000000;fill:#000000;fill-opacity:1;fill-rule:nonzero;stroke:#000000;stroke-width:1;stroke-linecap:square;stroke-linejoin:miter;stroke-miterlimit:0;stroke-opacity:1;stroke-dasharray:none;stroke-dashoffset:0;marker:none;visibility:visible;display:inline;overflow:visible;enable-background:accumulate;marker-end:url(#Arrow1Lend)"
       d="m 169.70563,615.97628 112.12693,-40.4061"
       id="path4654"
       inkscape:connector-curvature="0" />
    <path
       style="color:#000000;fill:#000000;fill-opacity:1;fill-rule:nonzero;stroke:#000000;stroke-width:1;stroke-linecap:square;stroke-linejoin:miter;stroke-miterlimit:0;stroke-opacity:1;stroke-dasharray:none;stroke-dashoffset:0;marker:none;visibility:visible;display:inline;overflow:visible;enable-background:accumulate;marker-end:url(#Arrow1Lend)"
       d="M 142.43151,653.35193 257.5889,615.97628"
       id="path4656"
       inkscape:connector-curvature="0" />
  </g>
</svg>
